<svg xmlns="http://www.w3.org/2000/svg" width="215" height="215" viewBox="0 0 215 215"><g transform="translate(435 895)"><rect width="215" height="215" transform="translate(-435 -895)" fill="#293e96"/><path d="M58.41,0H68.2L40.37-75.46H29.26L1.43,0h9.79l6.93-19.14H51.48ZM21.34-27.72,34.87-64.68,48.29-27.72Zm98.34-11.99v-.22c3.63-1.32,10.12-6.38,10.12-16.72,0-10.78-7.48-18.81-20.46-18.81H79.64V0h29.92c14.08,0,22.99-8.03,22.99-20.9C132.55-31.9,126.17-37.95,119.68-39.71Zm.33-15.51c0,6.93-4.07,12.21-12.65,12.21H89.32V-66.99h18.15C115.17-66.99,120.01-62.81,120.01-55.22ZM109.34-8.36H89.32V-35.09h19.36c8.69,0,14.08,4.4,14.08,13.42C122.76-12.76,117.48-8.36,109.34-8.36Z" transform="translate(-394 -750)" fill="#fff"/></g></svg>