<svg xmlns="http://www.w3.org/2000/svg" width="55" height="55" viewBox="0 0 55 55"><g transform="translate(166 235)"><rect width="55" height="55" transform="translate(-166 -235)" fill="#222"/><path d="M17.817,2.127a2.05,2.05,0,0,1-.873.175c-.559,0-.978-.419-.978-1.153V-5.837c0-4.122-2.585-6.532-7.091-6.532-4.192,0-7.091,2.131-7.371,5.834h3C4.718-8.6,6.22-9.75,8.665-9.75c2.76,0,4.227,1.467,4.227,3.843v1.118h-3.6C4.543-4.789,1.12-3.252,1.12.45c0,2.725,1.921,4.646,5.8,4.646,3.808,0,5.38-1.816,6.008-2.795A3.03,3.03,0,0,0,16.106,5.1a6.779,6.779,0,0,0,1.956-.279Zm-10.27.489c-2.306,0-3.284-.873-3.284-2.306,0-1.886,1.642-2.864,4.856-2.864h3.773v1.188C12.892.206,11.006,2.616,7.547,2.616ZM30.253-12.37A6.567,6.567,0,0,0,24.42-9.331V-19.88H21.346v24.8h3l.07-2.62A6.18,6.18,0,0,0,30.044,5.1c4.786,0,8-3.668,8-8.943C38.043-9.051,34.9-12.37,30.253-12.37ZM29.834,2.476C26.1,2.476,24.42-.7,24.42-3.287v-.769A5.509,5.509,0,0,1,29.9-9.75c3.074,0,5,2.34,5,5.973C34.9-.074,32.908,2.476,29.834,2.476Z" transform="translate(-158 -201)" fill="#fff"/></g></svg>