<svg xmlns="http://www.w3.org/2000/svg" viewBox="0 0 512 512"><style>.a{fill:#26FCA8;}</style><path d="M441.4 79.5l-26.5 17.7 -44.1-8.8 -26.5-8.8 -35.3 8.8 -26.5-8.8 17.7-35.3h35.3l34.6-17.3C396.7 40.1 420.9 57.9 441.4 79.5z" class="a"/><path d="M238.3 44.2l-8.8 26.5 -26.5 8.8 -26.5 44.1 -44.1 26.5 -61.8 8.8v26.5l17.7 17.7v35.3L61.8 220.8l-26.5-17.7 -15.4-46.2C46.4 93.9 96.9 44.1 160.3 18.6l25.1 16.8L238.3 44.2z" class="a"/><polygon points="256 291.4 247.2 335.5 211.8 370.8 211.8 397.3 176.5 423.8 176.5 468 150 459.1 132.4 415 132.4 326.7 88.2 317.9 70.6 282.6 70.6 256.1 88.2 238.4 114.7 211.9 132.4 247.3 194.2 247.3 220.7 291.4 " class="a"/><path d="M479.3 131c48.2 86 42.7 192-14.1 272.5l-23.8-23.8v-35.3l-17.7-35.3 -17.7-35.3v-35.3l-26.5-17.7 -35.3 8.8 -61.8-26.5 -8.8-61.8 26.5-26.5h53l17.7 26.5 53 8.8 53-17.7L479.3 131z" class="a"/><path d="M309 88.3l35.3-8.8 26.5 8.8 44.1 8.8 26.5-17.7c14.8 15.5 27.5 32.8 38 51.5l-2.6 1.5 -53 17.7 -53-8.8 -17.7-26.5h-53l-26.5 26.5 8.8 61.8 61.8 26.5 35.3-8.8 26.5 17.7v35.3l17.7 35.3 17.7 35.3v35.3l23.8 23.8c-81.5 115.5-241.3 143.1-356.8 61.6C10.3 395.8-26.5 267.7 19.9 156.9l15.4 46.2 26.5 17.7 26.5 17.7L70.6 256.1v26.5l17.7 35.3 44.1 8.8v88.3l17.7 44.1 26.5 8.8v-44.1l35.3-26.5v-26.5l35.3-35.3 8.8-44.1h-35.3l-26.5-44.1h-61.8l-17.7-35.3 -26.5 26.5v-35.3L70.6 185.5v-26.5l61.8-8.8 44.1-26.5 26.5-44.1 26.5-8.8 8.8-26.5 -53-8.8 -25.1-16.8c67.9-27.3 144.2-24.3 209.8 8.3l-34.6 17.3h-35.3l-17.7 35.3L309 88.3z" fill="#0733e8"/></svg>
 