<svg xmlns="http://www.w3.org/2000/svg" width="252.159" height="279" viewBox="0 0 252.159 279">
  <g id="Group_2" data-name="Group 2" transform="translate(-18.59 -23)">
    <circle id="Ellipse_8" data-name="Ellipse 8" cx="5" cy="5" r="5" transform="translate(248 292)" fill="#073193"/>
    <circle id="Ellipse_9" data-name="Ellipse 9" cx="5" cy="5" r="5" transform="translate(201 23)" fill="#073193"/>
    <path id="Path_16" data-name="Path 16" d="M-259.118-712.423c-4.891-18.976-19.563-23.476-19.563-23.476s-12.52-4.3-43.038,5.673S-374.93-751.353-407.8-735.9s-36,12.52-42.256,28.953,1.565,35.213,7.825,62.6-2.152,55.167,10.368,81.773,116.595,27.388,162.763,0,15.585-69.9,9.977-91.815C-264.791-681.187-254.227-693.447-259.118-712.423Z" transform="translate(487 809)" fill="none" stroke="#707070" stroke-width="1"/>
    <path id="Path_20" data-name="Path 20" d="M-354.432-756.9c-30.571,11.786-50.5,10.1-65.753,41.43-9,15.562-16.23,102.916-4.609,127.611s90.609,33.486,133.463,8.064,20.658-90.508,10.175-112.281C-299.7-724.732-297.393-773.912-354.432-756.9Z" transform="translate(450 798)" fill="none" stroke="#707070" stroke-width="1"/>
    <path id="Path_23" data-name="Path 23" d="M-263.932-685.467c-17.672-29.42-27.377-47.4-47.807-44.13s-34.323,13.076-57.205,16.344-73.958-20.43-89.485-5.721-23.7,96.431-12.258,113.593,29.42,30.237,45.764,32.689,80.9,13.075,108.69,8.172,52.3-19.613,52.3-19.613,21.248-11.441,22.882-27.785S-246.259-656.047-263.932-685.467Z" transform="translate(511.048 824.492)" fill="none" stroke="#707070" stroke-width="1"/>
    <circle id="Ellipse_7" data-name="Ellipse 7" cx="5" cy="5" r="5" transform="translate(66 97)" fill="#073193"/>
  </g>
</svg>
