<svg xmlns="http://www.w3.org/2000/svg" width="299.086" height="220.849" viewBox="0 0 299.086 220.849">
  <g id="Group_1" data-name="Group 1" transform="translate(-420.283 -66.16)">
    <path id="Path_12" data-name="Path 12" d="M2374.4-589.981S2349.8-459.1,2408.956-424.543,2572.3-386.324,2610-421.925,2607.734-554.4,2576.134-572.7s-109.588-36.124-148.854-7.33-80.625,96.855-71.725,126.173,28.795,64.919,64.4,68.06,145.02,6.282,170.673-50.783c20.882-46.451,20.6-77.292-10.582-100.255a131.99,131.99,0,0,0-26.065-14.4c-34.451-14.811-24.541-17-51.843-21.465-7.931-.666-26.4-.689-37.683,3.141-29.318,9.947-44.722,15.837-62.784,42.8s-21.506,45.155-9.464,65.05,41.883,71.725,100,82.719,93.19-94.76,93.19-125.649-26.177-87.635-47.642-90.253-62.825-12.361-95.284,22.193a76.208,76.208,0,0,0-15.905,24.516c-9.941,25.471.67,48.233,10.67,56.633,13.088,10.994,34.554,37.171,100.52,50.26s92.666-14.136,102.614-27.224,14.135-29.842,10.994-43.977-27.221-33.5-44.021-41.1-124.609-21.051-164.871,2.358-38.129,43.109-40.8,53.242,1.667,32.467,13.867,48.033,22.635,18.309,48.917,25.421,129.283,5.746,151.616-29.318,19.267-38.936,20.267-50.783-16.733-27.395-29-32.195-27.6-9.692-40.4-9.158-61.565,1.1-102.483,19.233" transform="translate(-1933.534 664.697)" fill="none" stroke="#f5cf9c" stroke-width="1"/>
  </g>
</svg>
