<svg xmlns="http://www.w3.org/2000/svg" width="355.011" height="264.915" viewBox="0 0 355.011 264.915">
  <path id="Path_12" data-name="Path 12" d="M2378.168-588s-29.223,155.442,41.037,196.479,193.992,45.389,238.759,3.109,18.031-168.5-23.006-175.339-147.359-46.633-193.991-12.435-95.752,115.027-85.182,149.846,34.2,77.1,76.478,80.83,172.229,7.461,202.7-60.312,23.005-107.566-43.524-136.167-71.5-33.575-106.322-21.762-85.8,67.773-85.8,67.773-14.3,36.684,0,60.311,49.741,85.182,118.758,98.239S2628.74-449.966,2628.74-486.65s-31.088-108.188-56.581-111.3S2497.547-608.516,2459-567.48s-21.762,83.317-6.218,96.374,41.037,44.146,119.38,59.69,110.053-16.788,121.866-32.332,16.788-35.441,13.057-52.229-49.12-46.011-49.12-46.011" transform="translate(-2353.813 600.883)" fill="none" stroke="#f5cf9c" stroke-width="1"/>
</svg>
