<svg xmlns="http://www.w3.org/2000/svg" width="393.504" height="313.567" viewBox="0 0 393.504 313.567">
  <g id="shapes-bg" transform="translate(-150.664 -67.918)">
    <path id="Path_16" data-name="Path 16" d="M-188.784-707.745a41.024,41.024,0,0,0-26.683-27.417s-34.723-7.112-76.349,4.54-56-28.8-102.4-12.8-46.459,22.882-55,42.074,2.135,41.125,10.673,73.111-2.935,64.429,14.142,95.5,159.033,31.986,222.006,0,21.258-81.64,13.609-107.229C-196.522-671.265-182.113-685.583-188.784-707.745Z" transform="translate(711.832 839.443)" fill="none" stroke="#f5cf9c" stroke-width="1"/>
    <path id="Path_24" data-name="Path 24" d="M-294.59-755.362c-54.521,16.98-90.063,14.552-117.266,59.691C-427.9-673.25-440.8-547.394-420.076-511.815s161.6,48.244,238.023,11.619,36.842-130.4,18.146-161.769C-196.986-709.02-192.866-779.877-294.59-755.362Z" transform="translate(582 828.667)" fill="none" stroke="#f5cf9c" stroke-width="1"/>
    <path id="Path_25" data-name="Path 25" d="M-182.372-668.352c-24.467-40.732-37.9-65.623-66.189-61.1s-47.52,18.1-79.2,22.629-102.395-28.286-123.892-7.92-32.812,133.51-16.971,157.27,40.732,41.863,63.36,45.258,112.012,18.1,150.481,11.314,72.412-27.154,72.412-27.154,29.417-15.84,31.68-38.469S-157.9-627.621-182.372-668.352Z" transform="translate(653.317 880.162)" fill="none" stroke="#f5cf9c" stroke-width="1"/>
  </g>
</svg>
