<svg width="87" height="77" viewBox="0 0 87 77" fill="none" xmlns="http://www.w3.org/2000/svg">
<path d="M48.9998 51V41.9H75.9098C78.3798 41.9 80.4598 43.98 80.4598 46.45C80.4598 48.92 78.3798 51 75.9098 51H48.9998ZM42.4998 77H48.9998V57.5H75.9098C82.0198 57.5 86.9598 52.56 86.9598 46.45C86.9598 40.34 82.0198 35.4 75.9098 35.4H48.9998V6.79999H74.6098C77.0798 6.79999 79.1598 8.87999 79.1598 11.35C79.1598 13.69 77.2098 15.77 74.9998 15.9C79.1599 15.9 81.7598 16.42 84.0998 17.07C85.0098 15.38 85.6598 13.43 85.6598 11.35C85.6598 5.23999 80.7198 0.299988 74.6098 0.299988H42.4998V77Z" fill="white"/>
<path d="M0.0898438 62H7.49984L17.5098 42.5H48.1898L29.2098 5.57999L0.0898438 62ZM20.7598 36L29.2098 19.75L37.5298 36H20.7598Z" fill="white"/>
</svg>
